HIERARCHY
ROOT Hips
{
  OFFSET 90.7885 88.945 -76.2838
  CHANNELS 6 Xposition Yposition Zposition Zrotation Xrotation Yrotation
  JOINT LeftUpLeg
  {
    OFFSET 8.64259 1.95398 -2.38835
    CHANNELS 3 Zrotation Xrotation Yrotation
    JOINT LeftLeg
    {
      OFFSET 43.7702 0 0
      CHANNELS 3 Zrotation Xrotation Yrotation
      JOINT LeftFoot
      {
        OFFSET 40.6238 0 0
        CHANNELS 3 Zrotation Xrotation Yrotation
        JOINT LeftToeBase
        {
          OFFSET 12.7242 0 0
          CHANNELS 3 Zrotation Xrotation Yrotation
          End Site
          {
            OFFSET 0 0 0
          }
        }
      }
    }
  }
  JOINT RightUpLeg
  {
    OFFSET -8.2249 1.95398 -2.59336
    CHANNELS 3 Zrotation Xrotation Yrotation
    JOINT RightLeg
    {
      OFFSET 43.5653 0 0
      CHANNELS 3 Zrotation Xrotation Yrotation
      JOINT RightFoot
      {
        OFFSET 40.6238 0 0
        CHANNELS 3 Zrotation Xrotation Yrotation
        JOINT RightToeBase
        {
          OFFSET 12.7242 0 0
          CHANNELS 3 Zrotation Xrotation Yrotation
          End Site
          {
            OFFSET 0 0 0
          }
        }
      }
    }
  }
  JOINT Spine
  {
    OFFSET 0.165834 0.87714 6.61349
    CHANNELS 3 Zrotation Xrotation Yrotation
    JOINT Spine1
    {
      OFFSET 7.38963 1.71661e-005 0
      CHANNELS 3 Zrotation Xrotation Yrotation
      JOINT Spine2
      {
        OFFSET 11.9445 1.14441e-005 0
        CHANNELS 3 Zrotation Xrotation Yrotation
        JOINT Spine3
        {
          OFFSET 14.7254 4.19617e-005 0
          CHANNELS 3 Zrotation Xrotation Yrotation
          JOINT Spine4
          {
            OFFSET 10.9679 0 0
            CHANNELS 3 Zrotation Xrotation Yrotation
            JOINT RightShoulder
            {
              OFFSET 2.46616 -1.6653 3.69651
              CHANNELS 3 Zrotation Xrotation Yrotation
              JOINT RightArm
              {
                OFFSET 13.0012 0 0
                CHANNELS 3 Zrotation Xrotation Yrotation
                JOINT RightForeArm
                {
                  OFFSET 28.7848 1.52588e-005 0
                  CHANNELS 3 Zrotation Xrotation Yrotation
                  JOINT RightHand
                  {
                    OFFSET 26.5688 1.52588e-005 0
                    CHANNELS 3 Zrotation Xrotation Yrotation
                    End Site
                    {
                      OFFSET 0 0 0
                    }
                  }
                }
              }
            }
            JOINT LeftShoulder
            {
              OFFSET 2.38034 -1.29275 -3.7523
              CHANNELS 3 Zrotation Xrotation Yrotation
              JOINT LeftArm
              {
                OFFSET 16.3182 6.10352e-005 0
                CHANNELS 3 Zrotation Xrotation Yrotation
                JOINT LeftForeArm
                {
                  OFFSET 27.0901 0 0
                  CHANNELS 3 Zrotation Xrotation Yrotation
                  JOINT LeftHand
                  {
                    OFFSET 24.5451 1.52588e-005 0
                    CHANNELS 3 Zrotation Xrotation Yrotation
                    End Site
                    {
                      OFFSET 0 0 0
                    }
                  }
                }
              }
            }
            JOINT Neck
            {
              OFFSET 5.0226 -0.0266342 0
              CHANNELS 3 Zrotation Xrotation Yrotation
              JOINT Head
              {
                OFFSET 6.69363 2.86102e-005 0
                CHANNELS 3 Zrotation Xrotation Yrotation
                End Site
                {
                  OFFSET 0 0 0
                }
              }
            }
          }
        }
      }
    }
  }
}
MOTION
Frames:	6
Frame Time:	0.0416667
36.208 8.91997 40.2658 4.15305 -9.88915 -1.07122 -175.799 -1.35244 92.9674 -31.3176 38.8733 4.28715 90.7355 15.224 2.87767 8.5259 15.9496 -13.1833 176.471 -14.0379 90.3739 -11.1553 -22.4875 -8.49781 95.9219 -18.6614 -2.40538 33.5702 0.303711 -2.0897 1.2678 9.26728 -91.2044 8.35557 1.99947 -2.50227 -3.31642 1.88745 -2.58782 -25.8528 2.65894 -1.78579 -5.8401 2.65894 -1.78579 105.186 20.5212 -44.2075 42.9291 -30.3627 -21.7599 12.317 4.77823 -118.482 113.418 -10.1277 -13.5715 -68.514 -18.1105 118.897 -22.9465 33.4347 -38.767 109.334 -24.2686 -85.359 -70.6433 34.9334 -54.2375 72.3292 4.65936 11.5644 -11.5734 -5.48993 0.924263 
36.1904 8.9087 40.2182 4.06161 -9.92418 -1.04258 -175.715 -1.2718 93.0609 -31.4901 38.566 4.14285 90.9828 15.261 2.56329 8.35253 16.4365 -13.599 176.636 -14.197 90.5258 -11.218 -22.6444 -8.63963 96.8985 -19.3692 -2.894 31.3647 0.0429215 -0.756295 1.28214 9.25735 -91.1909 8.37579 2.03376 -2.47844 -3.29611 1.92275 -2.56551 -25.8333 2.68448 -1.75273 -5.82062 2.68449 -1.75273 105.234 20.3462 -44.3829 42.8141 -29.8523 -21.4708 13.4968 4.62248 -118.691 113.808 -8.79606 -12.6835 -68.6205 -17.8769 118.738 -23.202 32.9983 -38.5644 107.921 -24.4765 -85.8774 -71.1857 34.1226 -52.7474 72.3503 4.50853 11.4471 -11.7782 -5.53368 0.89669 
36.2024 8.92607 40.2173 4.12202 -9.86798 -1.02967 -175.751 -1.16577 93.0392 -31.5611 38.6085 4.19385 90.9074 15.2217 2.54572 9.30226 14.7847 -12.313 176.738 -14.1374 90.6073 -11.2276 -22.5757 -8.70678 96.6798 -19.3255 -3.08205 31.8836 0.110975 -1.07111 1.27076 9.2303 -91.1842 8.42949 2.01339 -2.46559 -3.2424 1.90296 -2.55177 -25.7793 2.6612 -1.7466 -5.76671 2.66119 -1.7466 105.238 20.2868 -44.5937 42.652 -30.3942 -21.2424 10.2885 4.70755 -118.46 112.141 -12.4116 -15.2233 -68.7126 -18.0289 118.467 -23.1587 32.8214 -38.1158 108.342 -24.5218 -85.7683 -71.0616 34.2451 -53.007 72.2396 4.52662 11.4384 -11.9428 -5.52866 1.10555 
36.1955 8.93535 40.2848 4.28709 -9.81766 -1.07012 -175.749 -1.1651 93.0342 -31.3371 38.7322 4.15975 90.813 15.1009 2.33413 8.64761 15.3782 -12.6597 176.808 -13.9808 90.6332 -11.2262 -22.4697 -8.76641 95.4914 -18.5923 -2.86716 34.4743 0.354842 -2.4884 1.23533 9.20561 -91.1788 8.47808 1.94448 -2.4522 -3.19388 1.8347 -2.53536 -25.7299 2.59144 -1.75454 -5.71731 2.59145 -1.75456 105.256 20.167 -44.8804 42.4732 -30.3328 -21.134 9.96201 4.96048 -118.427 111.935 -13.1895 -15.7832 -68.8046 -17.9989 118.264 -23.086 33.1406 -37.5723 111.325 -24.3143 -84.8638 -69.6996 36.3707 -56.9374 72.1332 4.45551 11.5114 -12.0403 -5.59818 0.776202 
36.1899 8.93695 40.2347 4.14439 -9.81869 -1.05788 -175.762 -1.11619 93.0031 -31.5689 38.6929 4.19648 90.7217 15.2088 2.79428 9.08555 16.1308 -13.5865 176.942 -14.0929 90.7174 -11.2615 -22.4639 -8.8835 96.4786 -19.1255 -2.8693 32.0276 0.455269 -2.01385 1.25446 9.18446 -91.1631 8.52088 1.98909 -2.42523 -3.15098 1.88045 -2.5104 -25.688 2.62589 -1.7154 -5.67538 2.6259 -1.71541 105.277 19.9936 -45.3476 42.7106 -29.8823 -20.3529 11.7695 4.4254 -118.94 112.988 -11.0011 -14.2185 -68.9313 -17.881 118.012 -23.2976 32.5149 -37.3552 107.572 -24.7536 -86.0316 -71.2461 33.9297 -52.4609 72.0361 4.44372 11.4259 -12.1238 -5.52904 0.796339 
36.2012 8.92451 40.2124 4.19803 -9.87261 -1.07809 -175.787 -1.11967 92.9812 -31.7044 38.6216 4.2374 90.8156 15.233 2.69387 8.83868 17.0001 -14.3514 176.97 -14.1993 90.7408 -11.2772 -22.4728 -8.94846 97.2096 -19.6331 -3.15966 30.6883 0.198675 -0.959456 1.23226 9.16754 -91.1561 8.55409 1.9475 -2.40981 -3.11776 1.83959 -2.49315 -25.6544 2.58159 -1.7132 -5.64173 2.5816 -1.7132 105.249 20.0072 -45.6029 42.6525 -30.1667 -20.2637 10.9378 4.69383 -118.757 112.27 -12.0006 -14.9743 -69.0446 -17.9416 117.726 -23.3578 32.43 -36.7413 108.636 -24.7924 -85.7411 -70.7167 34.7725 -53.9882 71.9406 4.45338 11.3599 -12.3634 -5.44561 0.693742 
